# xmcd
#
# Track frame offsets:
#	150
#	6028
#	21896
#	33404
#	49272
#	60780
#	68282
#
# Disc length: 1059 seconds
#
# Revision: 1
# Processed by: cddbd v1.4PL0 Copyright (c) Steve Scherf et al.
# Submitted via: EasyCDDAExtractor 5.1.0
#
DISCID=47042107
DTITLE=Cisza and Spokój - Para z zielonej herbaty
DYEAR=2002
DGENRE=Rap
TTITLE0=Zamiast introdukcji
TTITLE1=Para z zielonej herbaty
TTITLE2=Para z zielonej herbaty (rmx)
TTITLE3=Para z zielonej herbaty (instrumental)
TTITLE4=Para z zielonej herbaty (Instrumental rmx)
TTITLE5=Zamiast zakonczenia
TTITLE6=A...kap...kap...kap...
EXTD=
EXTT0=
EXTT1=rymy:PanDu¿ePe\nprodukcja:PanDu¿ePe and DJ Spox dla ToSieWytnie Recs
EXTT2=rymy:PanDu¿ePe\nprodukcja:Nikim\ndodatkowa produkcja:PanDu¿ePe and DJ Spox
EXTT2=dla ToSieWytnie Recs
EXTT3=Instrumental
EXTT4=Instrumental rmx
EXTT5=
EXTT6=
PLAYORDER=
